<svg xmlns="http://www.w3.org/2000/svg" width="96" height="112" viewBox="0 0 96 112"><path d="M48 112C21.49 112 0 86.928 0 56S21.49 0 48 0s48 25.072 48 56-21.49 56-48 56z" fill="#E0E0E0"/><path d="M48 104.757c-23.738 0-42.98-21.572-42.98-48.182C5.02 29.965 24.26 8.392 48 8.392c23.738 0 42.98 21.572 42.98 48.183 0 26.61-19.242 48.182-42.98 48.182z" fill="#62370C"/><path d="M27.037 60.448c-1.07 0-1.937-.867-1.937-1.937 0-1.066.867-1.933 1.937-1.933s1.936.867 1.936 1.936c0 1.07-.867 1.938-1.936 1.938zm28.288-1.018c-1.07 0-1.937-.867-1.937-1.937s.867-1.937 1.937-1.937 1.937.867 1.937 1.937-.867 1.937-1.937 1.937zm-8.203 58.34v.338-.337zm-28.446-97.1s28.446 5.23 51.666 0c3.69-.83 11.73 26.75 11.73 26.75s4.215-3.577 7.287 5.134c2.52 7.146 7.956-38.512-37.496-43.87C30.66 6.18 18.674 20.67 18.674 20.67z"/><path d="M37.74 55.34l6.21-.29m-30.66-.814s9.395-4.528 23.872-1.953c0 0 2.31 13.405-2.31 13.937-4.62.53-12.586 1.745-17.285.59-4.698-1.154-4.278-12.574-4.278-12.574zm54.716-2.51s-9.776-3.637-23.952.268c0 0-1.06 13.56 3.59 13.662 4.65.1 12.695.572 17.266-1.012 4.572-1.585 3.096-12.917 3.096-12.917zM34.503 86.5s4.656 6.828 11.138.16" stroke="#000" stroke-width="2" fill="none"/><path d="M41.812 65.062c.287 2.82 6.396 6.224 6.396 7.787 0 1.56-4.14 1.18-6.463 1.14-2.323-.045-8.11.2-8.11-1.887s7.924-9.535 8.177-7.043z" fill="#412508"/></svg>