<?xml version="1.0" encoding="UTF-8"?>
<!DOCTYPE svg PUBLIC "-//W3C//DTD SVG 1.1//EN" "http://www.w3.org/Graphics/SVG/1.1/DTD/svg11.dtd">
<svg version="1.1" xmlns="http://www.w3.org/2000/svg" xmlns:xlink="http://www.w3.org/1999/xlink" x="0" y="0" width="96" height="112" viewBox="0, 0, 96, 112">
  <g id="kojo" transform="translate(0, 0)">
    <path d="M48,98.557 C24.262,98.557 5.019,76.985 5.019,50.375 C5.019,23.764 24.262,2.192 48,2.192 C71.738,2.192 90.981,23.764 90.981,50.375 C90.981,76.985 71.738,98.557 48,98.557 z" fill="#714100"/>
    <path d="M27.037,54.248 C25.967,54.248 25.1,53.381 25.1,52.311 C25.1,51.242 25.967,50.375 27.037,50.375 C28.106,50.375 28.973,51.242 28.973,52.311 C28.973,53.381 28.106,54.248 27.037,54.248 z" fill="#000000"/>
    <path d="M55.325,53.23 C54.255,53.23 53.388,52.363 53.388,51.293 C53.388,50.223 54.255,49.356 55.325,49.356 C56.395,49.356 57.262,50.223 57.262,51.293 C57.262,52.363 56.395,53.23 55.325,53.23 z" fill="#000000"/>
    <path d="M47.122,117.771 L47.122,117.771 L47.122,118.108 L47.122,118.108 L47.122,117.771 z" fill="#000000"/>
    <path d="M18.676,14.471 C18.676,14.471 47.122,19.7 70.342,14.471 C74.031,13.64 82.071,41.221 82.071,41.221 C82.071,41.221 86.287,37.643 89.359,46.354 C91.879,53.5 97.318,7.842 51.866,2.483 C30.659,-0.018 18.676,14.471 18.676,14.471 z" fill="#000000"/>
    <g>
      <path d="M37.74,49.14 L43.951,48.851" fill-opacity="0" stroke="#000000" stroke-width="2"/>
      <path d="M13.289,48.036 C13.289,48.036 22.685,43.508 37.162,46.083 C37.162,46.083 39.473,59.488 34.853,60.02 C30.232,60.551 22.266,61.765 17.567,60.611 C12.869,59.456 13.289,48.036 13.289,48.036 z" fill-opacity="0" stroke="#000000" stroke-width="2"/>
      <path d="M68.006,45.527 C68.006,45.527 58.23,41.889 44.054,45.794 C44.054,45.794 42.995,59.355 47.644,59.456 C52.294,59.557 60.339,60.028 64.91,58.444 C69.482,56.859 68.006,45.527 68.006,45.527 z" fill-opacity="0" stroke="#000000" stroke-width="2"/>
    </g>
    <path d="M30.473,80.3 C30.473,80.3 38.863,84.913 50.545,80.407" fill-opacity="0" stroke="#000000" stroke-width="2"/>
    <path d="M41.812,58.862 C42.099,61.683 48.208,65.086 48.208,66.649 C48.208,68.211 44.068,67.831 41.745,67.789 C39.422,67.747 33.635,67.992 33.635,65.905 C33.635,63.818 41.559,56.37 41.812,58.862 z" fill="#573200"/>
    <path d="M27.037,56.212 C24.882,56.212 23.136,54.466 23.136,52.311 C23.136,50.157 24.882,48.411 27.037,48.411 C29.191,48.411 30.937,50.157 30.937,52.311 C30.937,54.466 29.191,56.212 27.037,56.212 z" fill="#000000"/>
    <path d="M55.325,55.193 C53.171,55.193 51.424,53.447 51.424,51.293 C51.424,49.139 53.171,47.392 55.325,47.392 C57.479,47.392 59.225,49.139 59.225,51.293 C59.225,53.447 57.479,55.193 55.325,55.193 z" fill="#000000"/>
    <path d="M102.6,100.2 L103.2,100.2 L103.2,100.2 L102.6,100.2 L102.6,100.2 z" fill="#7B450F"/>
    <path d="M13.593,103.289 C22.009,98.585 46.19,100.652 49.52,100.652 C52.85,100.652 81.496,100.768 85.597,103.518 C88.319,105.344 93.8,112 93.8,112 C93.8,112 2.2,112 2.2,112" fill="#C67232"/>
    <path d="M59.225,95.9 L59.225,104.156 L59.167,104.156 C58.129,107.014 51.943,107.417 48,107.544 C44.159,107.433 37.738,107.009 36.833,104.156 L36.775,104.156 L36.775,95.9 L59.225,95.9 z" fill="#714100"/>
  </g>
</svg>
