<?xml version="1.0" encoding="UTF-8"?>
<!DOCTYPE svg PUBLIC "-//W3C//DTD SVG 1.1//EN" "http://www.w3.org/Graphics/SVG/1.1/DTD/svg11.dtd">
<svg version="1.1" xmlns="http://www.w3.org/2000/svg" xmlns:xlink="http://www.w3.org/1999/xlink" x="0" y="0" width="96" height="112" viewBox="0, 0, 96, 112">
  <g id="lamisi" transform="translate(0, 0)">
    <path d="M48,101.899 C24.543,101.899 5.527,83.301 5.527,60.358 C5.527,37.416 24.543,18.817 48,18.817 C71.457,18.817 90.473,37.416 90.473,60.358 C90.473,83.301 71.457,101.899 48,101.899 z" fill="#BE6E00"/>
    <path d="M38.363,66.263 C37.306,66.263 36.449,65.406 36.449,64.349 C36.449,63.292 37.306,62.435 38.363,62.435 C39.42,62.435 40.277,63.292 40.277,64.349 C40.277,65.406 39.42,66.263 38.363,66.263 z" fill="#000000"/>
    <path d="M65.192,68.987 C64.135,68.987 63.278,68.13 63.278,67.073 C63.278,66.016 64.135,65.159 65.192,65.159 C66.249,65.159 67.106,66.016 67.106,67.073 C67.106,68.13 66.249,68.987 65.192,68.987 z" fill="#000000"/>
    <path d="M66.131,38.82 C55.646,34.16 42.748,53.549 34.932,53.166 C34.932,53.166 54.557,39.569 35.997,44.379 C29.684,46.015 25.933,48.018 20.873,52.013 C15.814,56.007 16.049,65.994 14.4,69.432 C9.6,79.435 24.546,90.78 24.473,91.013 C24.4,91.245 12.473,84.813 7.273,78.013 C7.273,78.013 4.994,74.376 5.527,73.045 C6.059,71.714 5.698,71.645 2.898,45.245 C1.972,36.511 9.428,31.175 7.298,29.045 C7.298,29.045 8.667,28.45 11.76,22.845 C15.659,15.779 11.887,19.645 16.487,17.445 C24.121,13.794 19.436,14.173 22.898,10.445 C26.36,6.717 34.898,4.245 34.898,4.245 C43.698,9.445 48.424,-1.85 51.087,0.813 C53.886,3.612 66.663,3.613 66.663,3.613 C66.663,3.613 73.298,13.178 78.673,17.213 C89.063,25.013 88.063,28.413 91.136,31.413 C92.99,33.223 81.673,25.813 81.673,25.813 C81.673,25.813 90.263,28.213 92.931,45.221 C93.681,49.996 92.664,75.74 91.035,72.413 C89.761,69.813 83.561,85.885 83.561,85.885 C83.561,85.885 89.764,51.469 66.131,38.82 z" fill="#000000"/>
    <path d="M51.196,70.161 C51.196,70.161 60.143,78.876 51.433,78.417 C42.723,77.959 43.448,76.167 51.196,70.161 z" fill="#8C5100"/>
    <path d="M46.599,120.92 L46.599,120.92 L46.599,121.253 L46.599,121.253 L46.599,120.92 z" fill="#000000"/>
    <path d="M42.429,87.773 C42.429,87.773 48.716,96.328 55.743,89.567" fill-opacity="0" stroke="#000000" stroke-width="2"/>
    <path d="M38.363,68.249 C36.209,68.249 34.463,66.503 34.463,64.349 C34.463,62.194 36.209,60.448 38.363,60.448 C40.517,60.448 42.263,62.194 42.263,64.349 C42.263,66.503 40.517,68.249 38.363,68.249 z" fill="#000000"/>
    <path d="M65.192,70.973 C63.038,70.973 61.292,69.227 61.292,67.073 C61.292,64.918 63.038,63.172 65.192,63.172 C67.346,63.172 69.093,64.918 69.093,67.073 C69.093,69.227 67.346,70.973 65.192,70.973 z" fill="#000000"/>
    <path d="M5.019,112 C5.019,112 12,100.949 19.6,101.962 C27.2,102.975 65.178,103.343 77.5,101.962 C84.25,101.206 90.981,112 90.981,112" fill="#C91418"/>
    <path d="M54.794,96.956 L54.794,105.212 L54.759,105.212 C54.131,108.07 50.387,108.473 48,108.6 C45.675,108.49 41.789,108.065 41.241,105.212 L41.206,105.212 L41.206,96.956 L54.794,96.956 z" fill="#BE6E01"/>
  </g>
</svg>
