<svg xmlns="http://www.w3.org/2000/svg" width="96" height="112" viewBox="0 0 96 112"><path d="M48 112C21.49 112 0 86.928 0 56S21.49 0 48 0s48 25.072 48 56-21.49 56-48 56z" fill="#E0E0E0"/><path d="M48 107.74c-23.457 0-42.473-18.6-42.473-41.542 0-22.943 19.016-41.542 42.473-41.542s42.473 18.6 42.473 41.542-19.016 41.54-42.473 41.54z" fill="#A16020"/><path d="M38.363 71.263c-1.057 0-1.914-.857-1.914-1.914 0-1.06.85-1.92 1.91-1.92s1.91.852 1.91 1.91c0 1.055-.86 1.912-1.917 1.912zm26.83 2.724c-1.058 0-1.915-.857-1.915-1.914s.857-1.914 1.914-1.914 1.914.85 1.914 1.91-.857 1.91-1.914 1.91z"/><path d="M66.13 43.82c-10.483-4.66-23.38 14.73-31.197 14.346 0 0 19.625-13.597 1.065-8.787-6.313 1.63-10.064 3.63-15.124 7.63C15.814 61 16.05 70.99 14.4 74.43c-4.8 10 10.15 21.35 10.08 21.58-.073.23-12-6.2-17.2-13 0 0-2.28-3.638-1.746-4.97.53-1.33.17-1.4-2.63-27.8-.925-8.733 6.53-14.07 4.4-16.2 0 0 1.37-.594 4.463-6.2 3.9-7.065.128-7.6 4.728-9.8 7.635-3.65 2.95-3.27 6.41-7 3.464-3.727 12-6.2 12-6.2 8.8 5.2 13.528-6.094 16.19-3.43 2.8 2.8 15.577 2.8 15.577 2.8s6.635 9.566 12.01 13.6c10.39 7.8 9.39 15.6 12.463 18.6 1.852 1.81-9.465-5.6-9.465-5.6s8.59 2.4 11.258 19.41c.75 4.775-.266 30.52-1.895 27.192-1.274-2.6-7.474 13.472-7.474 13.472s6.2-34.414-17.44-47.064z"/><path d="M51.196 75.16s8.947 8.716.237 8.257c-8.71-.458-7.985-2.25-.237-8.256z" fill="#5E3B1A"/><path d="M46.6 120.92v.333-.333z"/><path d="M42.43 92.773s6.286 8.555 13.313 1.794" stroke="#000" stroke-width="2" fill="none"/></svg>