<svg xmlns="http://www.w3.org/2000/svg" width="96" height="112" viewBox="0 0 96 112"><path d="M48 112C21.49 112 0 86.928 0 56S21.49 0 48 0s48 25.072 48 56-21.49 56-48 56z" fill="#E0E0E0"/><path d="M47.12 106.9c-21.353 0-38.663-22.138-38.663-49.445 0-27.308 17.31-49.445 38.663-49.445 21.352 0 38.662 22.137 38.662 49.445 0 27.307-17.31 49.444-38.662 49.444z" fill="#644323"/><path d="M33.75 61.05c-1.097 0-1.986-.89-1.986-1.987 0-1.098.89-1.987 1.987-1.987 1.1 0 1.99.89 1.99 1.987 0 1.098-.89 1.988-1.99 1.988zm26.595.914c-1.098 0-1.988-.89-1.988-1.988 0-1.098.89-1.988 1.988-1.988 1.098 0 1.987.89 1.987 1.988 0 1.098-.89 1.988-1.987 1.988zM46.22 120.398v.346-.346z"/><path d="M46.433 65.553s6.882 9.938 3.518 10.035c-3.36.096-5.24.103-5.26-.04" fill="#472F19"/><path d="M42.154 86.868s3.355 11.177 9.13.86" stroke="#000" stroke-width="2" fill="none"/><path d="M64.708 37.518s-28.48 1.31-30.116-1.557l14.544-5.7s-17.84-.523-27.99 8.79C15.45 44.27 6.424 63.33 6.424 63.33S4.61 54.446 4.99 44.128c.383-10.317 6.985-23.04 11.57-25.334 4.586-2.293 24.47-11.94 28.523-11.56 4.053.383-17.308 4.796-17.308 4.796S51.19-1.248 62.343 4.866c11.154 6.114 18.308 7.738 21.46 16.622 2.61 7.355 11.106 20.204 5.23 28.014-2.442 3.247-1.862 18.843-1.862 18.843s-7.56-23.567-11.76-27.77c-4.202-4.203-10.7-3.057-10.7-3.057z"/></svg>