<?xml version="1.0" encoding="UTF-8"?>
<!DOCTYPE svg PUBLIC "-//W3C//DTD SVG 1.1//EN" "http://www.w3.org/Graphics/SVG/1.1/DTD/svg11.dtd">
<svg version="1.1" xmlns="http://www.w3.org/2000/svg" xmlns:xlink="http://www.w3.org/1999/xlink" x="0" y="0" width="96" height="112" viewBox="0, 0, 96, 112">
  <g id="zara" transform="translate(0, 0)">
    <path d="M5.232,111.989 C5.232,111.989 12.996,100.2 23.353,101.899 C30.112,103.008 65.333,101.899 73.6,101.899 C85.8,101.899 90.768,112.269 90.768,111.995" fill="#0ACBAB"/>
    <path d="M48,103.445 C26.647,103.445 9.338,81.307 9.338,54 C9.338,26.693 26.647,4.555 48,4.555 C69.353,4.555 86.662,26.693 86.662,54 C86.662,81.307 69.353,103.445 48,103.445 z" fill="#A37331"/>
    <path d="M33.823,61.42 C31.669,61.42 29.922,59.674 29.922,57.52 C29.922,55.365 31.669,53.619 33.823,53.619 C35.977,53.619 37.723,55.365 37.723,57.52 C37.723,59.674 35.977,61.42 33.823,61.42 z" fill="#000000"/>
    <path d="M60.416,62.333 C58.262,62.333 56.516,60.587 56.516,58.433 C56.516,56.278 58.262,54.532 60.416,54.532 C62.571,54.532 64.317,56.278 64.317,58.433 C64.317,60.587 62.571,62.333 60.416,62.333 z" fill="#000000"/>
    <path d="M46.219,118.398 L46.219,118.398 L46.219,118.744 L46.219,118.744 L46.219,118.398 z" fill="#000000"/>
    <path d="M46.433,63.553 C46.433,63.553 53.315,73.491 49.951,73.588 C46.587,73.684 44.71,73.691 44.688,73.549" fill="#704F22"/>
    <path d="M42.154,84.868 C42.154,84.868 45.509,96.045 51.283,85.728" fill-opacity="0" stroke="#000000" stroke-width="2"/>
    <path d="M64.708,35.518 C64.708,35.518 36.229,36.827 34.592,33.961 C34.592,33.961 49.136,28.258 49.136,28.258 C49.136,28.258 31.297,27.733 21.146,37.046 C15.451,42.272 6.424,61.33 6.424,61.33 C6.424,61.33 4.609,52.446 4.991,42.128 C5.373,31.811 11.975,19.087 16.561,16.794 C21.146,14.501 41.03,4.853 45.083,5.235 C49.136,5.617 27.775,10.03 27.775,10.03 C27.775,10.03 51.189,-3.248 62.343,2.866 C73.497,8.98 80.651,10.604 83.803,19.488 C86.413,26.843 94.909,39.692 89.033,47.502 C86.591,50.749 87.171,66.345 87.171,66.345 C87.171,66.345 79.61,42.778 75.407,38.575 C71.204,34.372 64.708,35.518 64.708,35.518 z" fill="#000000"/>
    <path d="M54.577,97.023 L54.577,105.279 L54.541,105.279 C53.913,108.137 50.169,108.54 47.783,108.667 C45.458,108.556 41.571,108.132 41.024,105.279 L40.989,105.279 L40.989,97.023 L54.577,97.023 z" fill="#A37331"/>
  </g>
</svg>
